<svg id="Ebene_1" data-name="Ebene 1" xmlns="http://www.w3.org/2000/svg" viewBox="0 0 618.39 503.21"><defs><style>.cls-1{fill:#81858a;}.cls-2{fill:#d0d6db;}.cls-3{fill:#3e3d40;}.cls-4{fill:#eceded;}</style></defs><polygon class="cls-1" points="387.59 493.07 230.8 493.07 239.77 425.61 379.9 425.61 387.59 493.07"/><path class="cls-2" d="M150.05,514.46v41.65a15.42,15.42,0,0,0,15.38,15.38H753.06a15.42,15.42,0,0,0,15.37-15.38V514.46Z" transform="translate(-150.05 -145.35)"/><path class="cls-3" d="M768.43,160.73a15.42,15.42,0,0,0-15.37-15.38H165.43a15.42,15.42,0,0,0-15.38,15.38V514.46H768.43Z" transform="translate(-150.05 -145.35)"/><rect class="cls-4" x="21.79" y="20.51" width="574.82" height="328.1"/><polygon class="cls-2" points="230.8 493.07 387.59 493.07 415.17 499.59 203.22 499.75 230.8 493.07"/><polygon class="cls-1" points="413.73 503.21 204.66 503.21 203.28 499.75 415.17 499.59 413.73 503.21"/><path class="cls-3" d="M470.24,544.79a11,11,0,1,1-11-11A11,11,0,0,1,470.24,544.79Z" transform="translate(-150.05 -145.35)"/></svg>