<svg id="Capa_1" data-name="Capa 1" xmlns="http://www.w3.org/2000/svg" xmlns:xlink="http://www.w3.org/1999/xlink" viewBox="0 0 367.48 364.02"><defs><style>.cls-1{fill-opacity:0.32;}.cls-1,.cls-2,.cls-3,.cls-4{fill-rule:evenodd;}.cls-2{fill:#e5f288;}.cls-3{fill:url(#Degradado_sin_nombre);}.cls-4{fill:url(#Degradado_sin_nombre_2);}</style><radialGradient id="Degradado_sin_nombre" cx="-776.52" cy="943.94" r="49.44" gradientTransform="matrix(-0.4, 2.08, 2.51, 0.69, -2399.34, 1015.53)" gradientUnits="userSpaceOnUse"><stop offset="0" stop-opacity="0.6"/><stop offset="1" stop-opacity="0"/></radialGradient><linearGradient id="Degradado_sin_nombre_2" x1="-351.5" y1="673.11" x2="-332.78" y2="715.25" gradientTransform="matrix(1.7, 0, 0, -1.7, 869.52, 1219.41)" gradientUnits="userSpaceOnUse"><stop offset="0" stop-color="#ececec"/><stop offset="1" stop-color="#696969"/></linearGradient></defs><path class="cls-1" d="M171.26,30A178.73,178.73,0,0,0,56.09,197c0,98.61,80,178.65,178.64,178.65s178.64-80,178.64-178.65A177.55,177.55,0,0,0,393,114.3c-10.88-10-17.17-9.63-26.21-13.16L194.5,34.93c-7.95-3.11-13.56-5.67-23.22-4.9Z" transform="translate(-49.12 -11.63)"/><path class="cls-2" d="M167.58,12.6C98.35,39,49.12,105.91,49.12,184.34c0,101.42,82.32,183.74,183.74,183.74S416.6,285.76,416.6,184.34a182.65,182.65,0,0,0-20.91-85.08C384.5,89,378,89.36,368.73,85.73L191.48,17.64c-8.18-3.2-13.95-5.84-23.88-5.05Z" transform="translate(-49.12 -11.63)"/><path class="cls-3" d="M325.59,167.92c28.56-8.33,56.32-24.93,82.34-48-3.67-13.58-10.73-23.61-20.57-27.18l-12.54-4.39L167.65,13c-11.17-4.05-23.54,1.19-34.19,12.63,32,108.53,104.2,167.93,192.13,142.3Z" transform="translate(-49.12 -11.63)"/><path class="cls-4" d="M323.89,106.21c36.48,0,57.2-18.45,71.77-6.94C392.1,92,385.3,87.34,377.12,84.14L194.35,14.51c-10.33-3.94-27.33-2-26.79-1.89,0,0,11.54-2.76,26.14,29.07,21.3,46.42,102,65.81,130.2,64.52Z" transform="translate(-49.12 -11.63)"/></svg>